<?xml version="1.0" encoding="UTF-8"?>
<!DOCTYPE svg PUBLIC "-//W3C//DTD SVG 1.1//EN" "http://www.w3.org/Graphics/SVG/1.1/DTD/svg11.dtd">
<!-- Creator: CorelDRAW X5 -->
<svg xmlns="http://www.w3.org/2000/svg" xml:space="preserve" width="135.467mm" height="28.448mm" style="shape-rendering:geometricPrecision; text-rendering:geometricPrecision; image-rendering:optimizeQuality; fill-rule:evenodd; clip-rule:evenodd"
viewBox="0 0 13547 2845"
 xmlns:xlink="http://www.w3.org/1999/xlink"
 xmlns:svg="http://www.w3.org/2000/svg">
 <defs>
  <style type="text/css">
   <![CDATA[
    .fil1 {fill:black;fill-rule:nonzero}
    .fil0 {fill:#794FDD;fill-rule:nonzero}
   ]]>
  </style>
 </defs>
 <g id="Layer_x0020_1">
  <metadata id="CorelCorpID_0Corel-Layer"/>
 </g>
 <g id="Layer_x0020_1_0">
  <metadata id="CorelCorpID_1Corel-Layer"/>
  <g id="polygon-logo.cdr">
   <path class="fil0" d="M2399 868c-59,-36 -135,-36 -199,0l-458 277 -311 181 -458 277c-59,36 -135,36 -199,0l-364 -217c-59,-36 -100,-102 -100,-175l0 -427c0,-72 35,-138 100,-175l358 -211c59,-36 135,-36 199,0l358 211c59,36 100,102 100,175l0 277 311 -187 0 -277c0,-72 -35,-138 -100,-175l-663 -397c-59,-36 -135,-36 -199,0l-675 397c-65,36 -100,102 -100,175l0 801c0,72 35,138 100,175l675 397c59,36 135,36 199,0l458 -271 311 -187 458 -271c59,-36 135,-36 199,0l358 211c59,36 100,102 100,175l0 428c0,72 -35,138 -100,175l-358 217c-59,36 -135,36 -199,0l-358 -211c-59,-36 -100,-102 -100,-175l0 -277 -311 187 0 277c0,72 35,138 100,175l675 397c59,36 135,36 199,0l675 -397c59,-36 100,-102 100,-175l0 -801c0,-72 -35,-138 -100,-175l-680 -403z"/>
   <path class="fil1" d="M4418 2590l0 -665c72,91 201,142 352,142 384,0 644,-275 644,-694 0,-419 -238,-694 -612,-694 -172,0 -305,64 -384,168l0 -147 -368 0 0 1890 368 0zm307 -844l0 0c-199,0 -329,-150 -329,-374 0,-227 130,-376 329,-376 193,0 326,150 326,376 0,224 -132,374 -326,374z"/>
   <path class="fil1" d="M6251 2067c411,0 705,-294 705,-694 0,-400 -294,-694 -705,-694 -411,0 -705,294 -705,694 0,400 294,694 705,694zm0 -320l0 0c-199,0 -334,-152 -334,-374 0,-224 135,-376 334,-376 199,0 334,152 334,376 0,222 -135,374 -334,374z"/>
   <polygon class="fil1" points="7546,2046 7546,115 7178,115 7178,2046 "/>
   <polygon class="fil1" points="8653,700 8375,1568 8094,700 7718,700 8203,2035 8007,2590 8359,2590 8547,2040 9032,700 "/>
   <path class="fil1" d="M10067 833c-74,-93 -207,-155 -368,-155 -390,0 -625,275 -625,694 0,419 236,694 631,694 156,0 297,-59 366,-158l0 176c0,126 -82,214 -193,214l-615 0 0 291 673 0c302,0 503,-184 503,-465l0 -1426 -371 0 0 134zm-305 913l0 0c-196,0 -326,-147 -326,-374 0,-227 130,-376 326,-376 199,0 329,150 329,376 0,227 -130,374 -329,374z"/>
   <path class="fil1" d="M11366 2067c411,0 705,-294 705,-694 0,-400 -294,-694 -705,-694 -411,0 -705,294 -705,694 0,400 294,694 705,694zm0 -320l0 0c-199,0 -334,-152 -334,-374 0,-224 135,-376 334,-376 199,0 334,152 334,376 0,222 -135,374 -334,374z"/>
   <path class="fil1" d="M12643 2046l0 -737c0,-174 114,-299 276,-299 154,0 257,117 257,280l0 756 371 0 0 -838c0,-310 -196,-529 -498,-529 -183,0 -331,77 -405,208l0 -187 -371 0 0 1346 371 0z"/>
  </g>
 </g>
</svg>
